# Blender 5.1.1
# www.blender.org
mtllib random_poly.mtl
o Plane
v -1.000000 0.000000 1.000000
v 1.000000 0.000000 1.000000
v -1.000000 0.000000 -1.000000
v 1.000000 0.000000 -1.000000
v 0.000000 0.000000 -2.000000
v 2.000000 0.000000 -2.000000
v -2.000000 0.000000 2.000000
v 0.000000 0.000000 2.000000
vn -0.0000 1.0000 -0.0000
vt 0.000000 0.000000
vt 1.000000 0.000000
vt 1.000000 1.000000
vt 0.000000 1.000000
s 0
f 1/1/1 2/2/1 4/3/1
f 3/4/1 1/1/1 4/3/1
f 3/4/1 4/3/1 5/1/1
f 5/1/1 4/3/1 6/1/1
f 1/1/1 7/1/1 8/2/1
f 2/2/1 1/1/1 8/2/1
